# Blender v2.69 (sub 0) OBJ File: ''
# www.blender.org
o Cube_Cube.001
v -1.000000 1.000000 -0.027821
v 1.000000 1.000000 -0.027821
v 1.000000 -1.000000 -0.027821
v -1.000000 -1.000000 -0.027821
v -1.000000 1.000000 0.027821
v 1.000000 1.000000 0.027821
v 1.000000 -1.000000 0.027821
v -1.000000 -1.000000 0.027821
vt 2.023145 0.998843
vt 2.023145 0.002261
vt 2.050871 0.998843
vt 1.026562 0.002261
vt 2.023145 -0.025465
vt 1.026562 0.998843
vt 0.998837 0.002261
vt 1.026562 1.026569
vt 0.002254 0.998843
vt 0.002254 0.002260
vt 0.998837 0.998843
vt 2.050871 0.002261
vt 1.026562 -0.025465
vt 2.023145 1.026569
vn 0.000000 1.000000 0.000000
vn 1.000000 0.000000 0.000000
vn 0.000000 -1.000000 0.000000
vn -1.000000 0.000000 0.000000
vn 0.000000 0.000000 -1.000000
vn 0.000000 0.000000 1.000000
s off
f 5/1/1 6/2/1 1/3/1
f 6/2/2 7/4/2 2/5/2
f 7/4/3 8/6/3 3/7/3
f 8/6/4 5/1/4 4/8/4
f 1/9/5 2/10/5 4/11/5
f 8/6/6 7/4/6 5/1/6
f 6/2/1 2/12/1 1/3/1
f 7/4/2 3/13/2 2/5/2
f 8/6/3 4/11/3 3/7/3
f 5/1/4 1/14/4 4/8/4
f 2/10/5 3/7/5 4/11/5
f 7/4/6 6/2/6 5/1/6
